<?xml version="1.0" encoding="UTF-8"?>
<!DOCTYPE svg PUBLIC "-//W3C//DTD SVG 1.1//EN" "http://www.w3.org/Graphics/SVG/1.1/DTD/svg11.dtd">
<!-- Creator: CorelDRAW -->
<svg xmlns="http://www.w3.org/2000/svg" xml:space="preserve" width="512px" height="512px" version="1.1" style="shape-rendering:geometricPrecision; text-rendering:geometricPrecision; image-rendering:optimizeQuality; fill-rule:evenodd; clip-rule:evenodd"
viewBox="0 0 512 512"
 xmlns:xlink="http://www.w3.org/1999/xlink">
 <defs>
  <style type="text/css">
   <![CDATA[
    .fil0 {fill:black}
   ]]>
  </style>
 </defs>
 <g id="Layer_x0020_1">
  <metadata id="CorelCorpID_0Corel-Layer"/>
  <g id="_419927624">
   <g>
    <path class="fil0" d="M470 471l-257 0c-24,0 -42,-18 -42,-42l0 -9c0,-4 3,-7 7,-7l327 0c4,0 7,3 7,7l0 9c0,24 -18,42 -42,42zm-285 -44l0 2c0,16 12,28 28,28l257 0c16,0 28,-12 28,-28l0 -2 -313 0z"/>
   </g>
   <g>
    <path class="fil0" d="M341 427c-94,0 -170,-76 -170,-170 0,-94 76,-171 170,-171 94,0 171,77 171,171 0,46 -18,88 -50,120 -32,32 -75,50 -121,50zm0 -327c-86,0 -156,70 -156,157 0,86 70,156 156,156 87,0 157,-70 157,-156 0,-87 -70,-157 -157,-157z"/>
   </g>
   <g>
    <path class="fil0" d="M341 395c-37,0 -71,-14 -97,-41 -27,-26 -41,-60 -41,-97 0,-37 14,-71 41,-97 26,-27 60,-41 97,-41 37,0 72,14 98,41 26,26 40,60 40,97 0,37 -14,71 -40,97 -26,27 -61,41 -98,41zm0 -262c-68,0 -124,56 -124,124 0,68 56,124 124,124 68,0 124,-56 124,-124 0,-68 -56,-124 -124,-124z"/>
   </g>
   <g>
    <path class="fil0" d="M270 267c-2,0 -4,-1 -5,-2 -3,-3 -3,-7 0,-10l74 -75c3,-3 7,-3 10,0 3,3 3,7 0,10l-74 75c-1,1 -3,2 -5,2z"/>
   </g>
   <g>
    <path class="fil0" d="M288 318c-2,0 -4,-1 -5,-2 -3,-3 -3,-7 0,-10l107 -108c3,-3 7,-3 10,0 3,3 3,7 0,10l-107 108c-1,1 -3,2 -5,2z"/>
   </g>
   <g>
    <path class="fil0" d="M338 335c-2,0 -4,-1 -5,-2 -3,-3 -3,-7 0,-10l75 -74c3,-3 7,-3 10,0 3,3 3,7 0,10l-75 74c-1,1 -3,2 -5,2z"/>
   </g>
   <g>
    <path class="fil0" d="M124 455l-117 0c-4,0 -7,-3 -7,-7l0 -143c0,-4 3,-7 7,-7l117 0c4,0 7,3 7,7l0 143c0,4 -3,7 -7,7zm-110 -14l103 0 0 -129 -103 0 0 129z"/>
   </g>
   <g>
    <path class="fil0" d="M124 312c-4,0 -7,-3 -7,-7l0 -30 -103 0 0 30c0,4 -3,7 -7,7 -4,0 -7,-3 -7,-7l0 -37c0,-4 3,-7 7,-7l117 0c4,0 7,3 7,7l0 37c0,4 -3,7 -7,7z"/>
   </g>
   <g>
    <path class="fil0" d="M111 275c-4,0 -7,-3 -7,-7l0 -71 -77 0 0 71c0,4 -3,7 -7,7 -4,0 -7,-3 -7,-7l0 -78c0,-4 3,-7 7,-7l91 0c4,0 7,3 7,7l0 78c0,4 -3,7 -7,7z"/>
   </g>
   <g>
    <path class="fil0" d="M96 197c-4,0 -7,-3 -7,-7l0 -142c0,-4 3,-7 7,-7 4,0 7,3 7,7l0 142c0,4 -3,7 -7,7zm-60 0c-4,0 -7,-3 -7,-7l0 -90c0,-4 3,-7 7,-7 4,0 7,3 7,7l0 90c0,4 -3,7 -7,7z"/>
   </g>
   <g>
    <path class="fil0" d="M42 275c-4,0 -7,-3 -7,-7l0 -46c0,-4 3,-7 7,-7 4,0 7,3 7,7l0 46c0,4 -3,7 -7,7z"/>
   </g>
   <g>
    <path class="fil0" d="M36 107c-3,0 -6,-2 -7,-6 -1,-4 2,-7 6,-8 36,-6 54,-47 55,-48 1,-3 5,-5 9,-3 3,1 5,5 3,9 -1,2 -22,48 -65,56 0,0 -1,0 -1,0z"/>
   </g>
   <g>
    <path class="fil0" d="M32 455c-4,0 -7,-3 -7,-7l0 -111c0,-4 3,-7 7,-7 4,0 7,3 7,7l0 111c0,4 -3,7 -7,7z"/>
   </g>
  </g>
 </g>
</svg>
