<?xml version="1.0" encoding="UTF-8" standalone="no"?> <svg xmlns="http://www.w3.org/2000/svg" viewBox="0 0 64 64"><g id="Layer_32" data-name="Layer 32"><path d="M60,20.35H53.94a1,1,0,0,0-1,1v1.93H52l-1.06-5a6.47,6.47,0,0,0-6.29-4.74H19.36a6.48,6.48,0,0,0-6.3,4.79l-1.05,5h-.95V21.35a1,1,0,0,0-1-1H4a1,1,0,0,0-1,1v3.83a1,1,0,0,0,.84,1l6.05,1a1,1,0,0,0,1.17-1v-.9h.53L11,27.94a7.16,7.16,0,0,0-3.91,5.79c0,.07-.52,5.76-.5,5.81s0,5.69,0,5.72v2a3.26,3.26,0,0,0,3.25,3.25H15.4a3.26,3.26,0,0,0,3.25-3.25v-1h26.7v1a3.26,3.26,0,0,0,3.25,3.25h5.54a3.26,3.26,0,0,0,3.25-3.25v-2c0-.06,0-5.67,0-5.72s-.52-5.75-.5-5.81A7.16,7.16,0,0,0,53,27.94l-.56-2.66h.53v.9a1,1,0,0,0,1.17,1l6-1a1,1,0,0,0,.84-1V21.35A1,1,0,0,0,60,20.35ZM9.06,25,5,24.33v-2H9.06ZM25.69,44.26v-1.9H38.31v1.9Zm29.2-10.35.5,5.72v7.61a1.25,1.25,0,0,1-1.25,1.25H48.6a1.25,1.25,0,0,1-1.25-1.25v-1h2.11a1,1,0,0,0,0-2H40.31v-2.9a1,1,0,0,0-1-1H24.69a1,1,0,0,0-1,1v2.9H14.54a1,1,0,0,0,0,2h2.11v1a1.25,1.25,0,0,1-1.25,1.25H9.86a1.25,1.25,0,0,1-1.25-1.25V39.63l.5-5.72a5.16,5.16,0,0,1,5.17-4.73H49.72A5.16,5.16,0,0,1,54.89,33.91ZM14.28,27.18h-1L15,18.77a4.47,4.47,0,0,1,4.36-3.26H44.64A4.46,4.46,0,0,1,49,18.72l1.78,8.46H14.28ZM59,24.33,54.94,25V22.35H59Z"/><path d="M41.22,35c-.9,2.06,1.15,4.36,3.25,4.31H50.6a3.61,3.61,0,1,0-.4-7.2L43,33.58A2.43,2.43,0,0,0,41.22,35Zm1.83.81a.46.46,0,0,1,.32-.28l7.16-1.44c2,0,2,3.18.07,3.22H44.47a1.45,1.45,0,0,1-1.24-.71C43.08,36.39,42.9,36.1,43.05,35.82Z"/><path d="M21.54,33.58l-7.23-1.46H14.2c-4.79-.26-5,7.07-.29,7.21H20C23.24,39.42,25.14,34.6,21.54,33.58Zm-.11,2.78a1.57,1.57,0,0,1-1.39,1H13.91C12,37.28,12,34.06,14,34.1l7.16,1.44A.55.55,0,0,1,21.43,36.36Z"/></g></svg>