<?xml version="1.0" encoding="UTF-8"?>
<!DOCTYPE svg PUBLIC "-//W3C//DTD SVG 1.1//EN" "http://www.w3.org/Graphics/SVG/1.1/DTD/svg11.dtd">
<!-- Creator: CorelDRAW -->
<svg xmlns="http://www.w3.org/2000/svg" xml:space="preserve" width="1.70666in" height="1.70666in" version="1.1" style="shape-rendering:geometricPrecision; text-rendering:geometricPrecision; image-rendering:optimizeQuality; fill-rule:evenodd; clip-rule:evenodd"
viewBox="0 0 1707 1707"
 xmlns:xlink="http://www.w3.org/1999/xlink">
 <defs>
  <style type="text/css">
   <![CDATA[
    .fil0 {fill:black}
   ]]>
  </style>
 </defs>
 <g id="Layer_x0020_1">
  <metadata id="CorelCorpID_0Corel-Layer"/>
  <g id="_588477744">
   <g>
    <g>
     <path class="fil0" d="M1586 1707l-1167 0c-13,0 -23,-11 -23,-24l0 -1361c0,-13 10,-23 23,-23l1167 0c13,0 23,10 23,23l0 1361c0,13 -10,24 -23,24zm-1143 -47l1120 0 0 -1315 -1120 0 0 1315z"/>
    </g>
    <g>
     <path class="fil0" d="M419 1408l-298 0c-13,0 -24,-11 -24,-23l0 -1362c0,-13 11,-23 24,-23l1166 0c13,0 24,10 24,23l0 299c0,13 -11,23 -24,23l-844 0 0 1040c0,12 -11,23 -24,23zm-275 -47l252 0 0 -1039c0,-13 10,-23 23,-23l845 0 0 -252 -1120 0 0 1314z"/>
    </g>
    <g>
     <path class="fil0" d="M419 345c-9,0 -18,-6 -22,-15 -4,-12 2,-26 15,-30l868 -299c12,-4 25,3 29,15 5,12 -2,25 -14,29l-868 299c-3,1 -5,1 -8,1z"/>
    </g>
    <g>
     <g>
      <path class="fil0" d="M1341 786l-677 0c-47,0 -86,-38 -86,-85l0 -167c0,-47 39,-86 86,-86l677 0c48,0 86,39 86,86l0 167c0,47 -38,85 -86,85zm-677 -291c-21,0 -39,17 -39,39l0 167c0,21 18,39 39,39l677 0c22,0 39,-18 39,-39l0 -167c0,-22 -17,-39 -39,-39l-677 0z"/>
     </g>
     <g>
      <path class="fil0" d="M1421 1557l-837 0c-13,0 -23,-10 -23,-23 0,-13 10,-23 23,-23l837 0c13,0 23,10 23,23 0,13 -10,23 -23,23z"/>
     </g>
     <g>
      <path class="fil0" d="M1421 1415l-837 0c-13,0 -23,-11 -23,-23 0,-13 10,-24 23,-24l837 0c13,0 23,11 23,24 0,12 -10,23 -23,23z"/>
     </g>
     <g>
      <path class="fil0" d="M1421 1272l-837 0c-13,0 -23,-10 -23,-23 0,-13 10,-23 23,-23l837 0c13,0 23,10 23,23 0,13 -10,23 -23,23z"/>
     </g>
     <g>
      <path class="fil0" d="M1421 1130l-837 0c-13,0 -23,-10 -23,-23 0,-13 10,-24 23,-24l837 0c13,0 23,11 23,24 0,13 -10,23 -23,23z"/>
     </g>
     <g>
      <path class="fil0" d="M1421 988l-837 0c-13,0 -23,-11 -23,-24 0,-12 10,-23 23,-23l837 0c13,0 23,11 23,23 0,13 -10,24 -23,24z"/>
     </g>
    </g>
   </g>
  </g>
 </g>
</svg>
