<?xml version="1.0" encoding="UTF-8" standalone="no"?> <svg xmlns="http://www.w3.org/2000/svg" width="512.002" height="429.976" viewBox="0 0 512.002 429.976">
  <g id="Layer_x0020_1" transform="translate(-93.999 -135.012)">
    <path id="Path_153" data-name="Path 153" d="M137.193,202.247a6,6,0,0,0,12,0V172.932a6,6,0,0,0-12,0Z"/>
    <path id="Path_154" data-name="Path 154" d="M137.193,259.323a6,6,0,0,0,12,0V228.964a6,6,0,0,0-12,0Z"/>
    <path id="Path_155" data-name="Path 155" d="M155.855,210.128a6,6,0,0,0,0,12h30.534a6,6,0,1,0,0-12Z"/>
    <path id="Path_156" data-name="Path 156" d="M100,210.128a6,6,0,0,0,0,12h28.8a6,6,0,1,0,0-12Z"/>
    <path id="Path_157" data-name="Path 157" d="M571.162,170.131,602.2,182.5l-2.2,5.555,2.222-5.574a6,6,0,0,1-.776,11.4l-30.563,9.514L558.51,234.435l-5.555-2.2,5.574,2.222a6,6,0,0,1-11.4-.776l-9.514-30.563-31.041-12.372,2.2-5.555-2.222,5.574a6,6,0,0,1,.776-11.4l30.563-9.514,12.372-31.041,5.555,2.2-5.574-2.222a6,6,0,0,1,11.4.776l9.514,30.563Z"/>
    <path id="Path_158" data-name="Path 158" d="M294.272,299.383l64-71.354H252.365Z" fill-rule="evenodd"/>
    <path id="Path_159" data-name="Path 159" d="M371.666,230.978l-65,72.483H436.671Z" fill-rule="evenodd"/>
    <path id="Path_160" data-name="Path 160" d="M385.073,228.029l64.051,71.42,43.146-71.42Z" fill-rule="evenodd"/>
    <path id="Path_161" data-name="Path 161" d="M503.136,233.223,460.7,303.461H563.339Z" fill-rule="evenodd"/>
    <path id="Path_162" data-name="Path 162" d="M564.484,315.461H454.6L386.377,556.145Z" fill-rule="evenodd"/>
    <path id="Path_163" data-name="Path 163" d="M371.422,564.988l70.73-249.527H301.17Z" fill-rule="evenodd"/>
    <path id="Path_164" data-name="Path 164" d="M237.051,342.317H274.52a6,6,0,0,1,0,12H246.186l54.19,85.156A5.975,5.975,0,1,1,290.3,445.9L232.012,354.3a8.023,8.023,0,0,1,5.039-11.986Zm119.92,215.538L288.727,315.461H178.811l178.16,242.394Z" fill-rule="evenodd"/>
    <path id="Path_165" data-name="Path 165" d="M179.995,303.461H282.8L241,232.285Z" fill-rule="evenodd"/>
  </g>
</svg>
