<?xml version="1.0" encoding="UTF-8"?>
<!DOCTYPE svg PUBLIC "-//W3C//DTD SVG 1.1//EN" "http://www.w3.org/Graphics/SVG/1.1/DTD/svg11.dtd">
<!-- Creator: CorelDRAW X7 -->
<svg xmlns="http://www.w3.org/2000/svg" xml:space="preserve" width="0.29222in" height="0.292205in" version="1.1" style="shape-rendering:geometricPrecision; text-rendering:geometricPrecision; image-rendering:optimizeQuality; fill-rule:evenodd; clip-rule:evenodd"
viewBox="0 0 292 292"
 xmlns:xlink="http://www.w3.org/1999/xlink">
 <defs>
  <style type="text/css">
   <![CDATA[
    .fil0 {fill:black}
   ]]>
  </style>
 </defs>
 <g id="Layer_x0020_1">
  <metadata id="CorelCorpID_0Corel-Layer"/>
  <path class="fil0" d="M166 126l0 -24c0,-26 -40,-26 -40,0l0 24 -24 0c-26,0 -26,40 0,40l24 0 0 24c0,26 40,26 40,0l0 -24 24 0c26,0 26,-40 0,-40l-24 0zm-10 10l0 -34c0,-12 -20,-12 -20,0l0 34 -34 0c-12,0 -12,20 0,20l34 0 0 34c0,13 20,13 20,0l0 -34 34 0c13,0 13,-20 0,-20l-34 0zm107 127l-59 0c-13,0 -13,19 0,19l59 0c11,0 19,-11 19,-22l0 -59c0,-13 -19,-13 -19,0l0 62zm0 -233l0 61c0,13 19,13 19,0l0 -59c0,-11 -8,-22 -19,-22l-59 0c-13,0 -13,20 0,20l59 0zm-233 233l0 -62c0,-13 -20,-13 -20,0l0 59c0,11 8,22 19,22l59 0c13,0 13,-19 0,-19l-58 0zm0 -233l58 0c13,0 13,-20 0,-20l-59 0c-11,0 -19,11 -19,22l0 59c0,13 20,13 20,0l0 -61zm223 223l0 -52c0,-26 39,-26 39,0l0 59c0,17 -14,32 -29,32l-59 0c-26,0 -26,-39 0,-39l49 0zm0 -213l0 51c0,26 39,26 39,0l0 -59c0,-17 -14,-32 -29,-32l-59 0c-26,0 -26,40 0,40l49 0zm-213 213l0 -52c0,-26 -40,-26 -40,0l0 59c0,17 14,32 29,32l59 0c26,0 26,-39 0,-39l-48 0zm0 -213l0 51c0,26 -40,26 -40,0l0 -59c0,-17 14,-32 29,-32l59 0c26,0 26,40 0,40l-48 0z"/>
 </g>
</svg>
