<?xml version="1.0" encoding="UTF-8" standalone="no"?>
<svg
   xmlns:dc="http://purl.org/dc/elements/1.1/"
   xmlns:cc="http://creativecommons.org/ns#"
   xmlns:rdf="http://www.w3.org/1999/02/22-rdf-syntax-ns#"
   xmlns:svg="http://www.w3.org/2000/svg"
   xmlns="http://www.w3.org/2000/svg"
   xmlns:sodipodi="http://sodipodi.sourceforge.net/DTD/sodipodi-0.dtd"
   xmlns:inkscape="http://www.inkscape.org/namespaces/inkscape"
   width="64"
   height="64"
   viewBox="0 0 16.933333 16.933334"
   version="1.1"
   id="svg8"
   inkscape:version="0.92.5 (2060ec1f9f, 2020-04-08)"
   sodipodi:docname="22-Production.svg"
   inkscape:export-filename="/home/wanzabuyumna/@WANZ_DESIGN/NICON STUDIO MAGANG/Style Line/Style Line/Icon 8/Icon 8.png"
   inkscape:export-xdpi="96"
   inkscape:export-ydpi="96">
  <defs
     id="defs2" />
  <sodipodi:namedview
     id="base"
     pagecolor="#ffffff"
     bordercolor="#959595"
     borderopacity="1"
     inkscape:pageopacity="0"
     inkscape:pageshadow="2"
     inkscape:zoom="9.0666665"
     inkscape:cx="28.453624"
     inkscape:cy="22.256247"
     inkscape:document-units="px"
     inkscape:current-layer="layer1"
     inkscape:document-rotation="0"
     showgrid="false"
     units="px"
     inkscape:window-width="1920"
     inkscape:window-height="1056"
     inkscape:window-x="0"
     inkscape:window-y="0"
     inkscape:window-maximized="1"
     inkscape:pagecheckerboard="0"
     inkscape:snap-bbox="true"
     inkscape:bbox-nodes="true">
    <inkscape:grid
       type="xygrid"
       id="grid822" />
  </sodipodi:namedview>
  <metadata
     id="metadata5">
    <rdf:RDF>
      <cc:Work
         rdf:about="">
        <dc:format>image/svg+xml</dc:format>
        <dc:type
           rdf:resource="http://purl.org/dc/dcmitype/StillImage" />
      </cc:Work>
    </rdf:RDF>
  </metadata>
  <g
     inkscape:label="22-Production"
     inkscape:groupmode="layer"
     id="layer1">
    <path
       style="color:#000000;font-style:normal;font-variant:normal;font-weight:normal;font-stretch:normal;font-size:medium;line-height:normal;font-family:sans-serif;font-variant-ligatures:normal;font-variant-position:normal;font-variant-caps:normal;font-variant-numeric:normal;font-variant-alternates:normal;font-feature-settings:normal;text-indent:0;text-align:start;text-decoration:none;text-decoration-line:none;text-decoration-style:solid;text-decoration-color:#000000;letter-spacing:normal;word-spacing:normal;text-transform:none;writing-mode:lr-tb;direction:ltr;text-orientation:mixed;dominant-baseline:auto;baseline-shift:baseline;text-anchor:start;white-space:normal;shape-padding:0;clip-rule:nonzero;display:inline;overflow:visible;visibility:visible;opacity:1;isolation:auto;mix-blend-mode:normal;color-interpolation:sRGB;color-interpolation-filters:linearRGB;solid-color:#000000;solid-opacity:1;vector-effect:none;fill:#000000;fill-opacity:1;fill-rule:nonzero;stroke:none;stroke-width:0.52916694;stroke-linecap:butt;stroke-linejoin:round;stroke-miterlimit:4;stroke-dasharray:none;stroke-dashoffset:0;stroke-opacity:1;color-rendering:auto;image-rendering:auto;shape-rendering:auto;text-rendering:auto;enable-background:accumulate"
       d="m 11.607746,0.52921101 v 5.1998e-4 c -0.264246,0.002 -0.441064,0.0253994 -0.593752,0.10541766 -0.173558,0.090898 -0.237938,0.2287849 -0.275436,0.31832291 -0.0375,0.089498 -0.0515,0.13465694 -0.0977,0.18964564 -0.0462,0.054998 -0.133188,0.1284472 -0.332266,0.2129054 -0.199068,0.084498 -0.3107654,0.094898 -0.3824044,0.089898 -0.071599,-0.005 -0.1131589,-0.0252 -0.2036077,-0.060498 -0.090399,-0.0352 -0.2335473,-0.086098 -0.421675,-0.0238 C 9.1372768,1.4158212 8.9978286,1.5266388 8.8125706,1.7150846 8.6273128,1.9035304 8.516124,2.053527 8.4668648,2.2111635 c -0.058,0.1857559 -0.007,0.3302926 0.0294,0.4201206 0.0368,0.089798 0.0584,0.1315472 0.0646,0.2030856 0.006,0.071498 -9.789e-4,0.1844958 -0.082199,0.3849813 -0.081098,0.2004756 -0.154578,0.2867037 -0.2087674,0.3338227 -0.0542,0.047099 -0.0971,0.062298 -0.1860378,0.1012878 -0.0889,0.038999 -0.2258274,0.1057175 -0.3141864,0.2816236 -0.077399,0.1540365 -0.097898,0.3315728 -0.095598,0.5958168 0.00201,0.2418044 0.0245,0.4152308 0.085799,0.5544776 0.0641,0.1455869 0.1679078,0.2363647 0.2806065,0.2898935 0.1227587,0.058298 0.1854779,0.068398 0.253207,0.1297073 -0.005,0.00201 -0.011099,0.006 -0.015999,0.008 C 7.9492718,5.6533069 7.7462644,5.6777964 7.605386,5.6679766 7.4645075,5.6579769 7.3750787,5.6128779 7.2405604,5.5604891 7.106042,5.5080903 6.9169441,5.4496015 6.6819368,5.5273899 6.4644895,5.5993883 6.2567019,5.7580847 5.9729452,6.0467284 5.7157782,6.3083225 5.5573401,6.5195379 5.486681,6.7030038 c -0.093098,0.2415846 -0.0503,0.3989611 -0.008,0.538968 0.0498,0.1632864 0.1999877,0.3400726 0.1224686,0.7286239 C 5.4095805,7.7048025 5.2082426,7.4652277 4.9593357,7.2833118 4.8113273,7.175134 4.6528893,7.092116 4.4741014,7.0290776 4.9703255,6.6678354 5.2910917,6.0829284 5.2910917,5.4240431 c 0,-1.0927557 -0.8842694,-1.984336 -1.9843464,-1.984336 -1.100087,0 -1.9843566,0.8915803 -1.9843566,1.984336 0,0.6178563 0.2817767,1.169814 0.7260415,1.5342358 -0.9069389,0.2468336 -1.51926154,1.039296 -1.51926154,2.0241239 v 4.2461552 c -5.6e-4,0.146158 0.1173886,0.265084 0.26354687,0.265604 H 4.7614185 c 0.1469283,5.55e-4 0.2666869,-0.118676 0.266127,-0.265604 v -1.215922 l 0.3415759,0.344672 c 0.0466,0.0469 0.1125686,0.0752 0.1782879,0.0785 0.1081089,0.278644 0.1272684,0.46152 0.1183285,0.589617 -0.01,0.140877 -0.053,0.230305 -0.1054186,0.364821 -0.0657,0.168668 -0.1050788,0.341174 -0.0331,0.558618 0.0661,0.199446 0.2306973,0.42523 0.5193439,0.708984 0.2886465,0.283754 0.5327837,0.45647 0.7172617,0.5059 0.2378272,0.0743 0.4244848,0.0118 0.5580933,-0.0429 0.1335985,-0.0547 0.2225975,-0.100938 0.3632858,-0.113168 0.1406882,-0.0122 0.3431058,0.009 0.6738518,0.142618 0.3307463,0.133696 0.4912644,0.260334 0.5839332,0.366902 0.092698,0.106558 0.1259284,0.202135 0.1839678,0.334332 0.058,0.132188 0.1444483,0.303724 0.3710357,0.41754 0.2046975,0.102818 0.4644345,0.138328 0.8691906,0.134868 0.404743,-0.004 0.674841,-0.0487 0.865049,-0.148307 0.223416,-0.117047 0.307506,-0.292633 0.363284,-0.425801 0.0558,-0.133166 0.0869,-0.227764 0.177758,-0.335892 0.0908,-0.108128 0.249838,-0.237384 0.578254,-0.376712 0.328416,-0.139326 0.530904,-0.164336 0.671782,-0.154506 0.140868,0.01 0.230838,0.053 0.365356,0.105418 0.170768,0.0666 0.341156,0.107208 0.558613,0.0351 0.217447,-0.072 0.426785,-0.230694 0.710541,-0.519338 0.283758,-0.288634 0.437596,-0.500158 0.505904,-0.718804 0.0683,-0.218644 0.0257,-0.389031 -0.0429,-0.556538 -0.0547,-0.133606 -0.10094,-0.222594 -0.11317,-0.363282 -0.0122,-0.140686 0.009,-0.345172 0.142628,-0.675914 0.1337,-0.330742 0.260338,-0.49127 0.366896,-0.583928 0.10657,-0.0927 0.200078,-0.125406 0.332276,-0.183445 0.132199,-0.058 0.304956,-0.142787 0.419606,-0.371032 0.102828,-0.204695 0.138328,-0.462879 0.134878,-0.867631 C 16.40094,9.8585833 16.35464,9.5851993 16.255632,9.3962135 16.149333,9.1932983 15.989754,9.0999302 15.829816,9.0329419 15.696648,8.9771431 15.60206,8.9460438 15.49393,8.8551757 15.385802,8.7643777 15.256544,8.6058612 15.117206,8.2774486 14.977876,7.9490358 14.952878,7.7460303 14.962697,7.6051536 c 0.01,-0.1408668 0.053,-0.2303149 0.105419,-0.3648319 0.0524,-0.134517 0.113888,-0.3194529 0.0346,-0.5586076 -0.056,-0.1689563 -0.188258,-0.3653321 -0.381366,-0.5658473 4.77e-4,-0.073198 0.0182,-0.1737461 0.0847,-0.3384727 0.0811,-0.2004755 0.152519,-0.2887634 0.206708,-0.3358823 0.0542,-0.047098 0.0987,-0.060698 0.187578,-0.099698 0.0889,-0.039 0.229248,-0.1109677 0.314706,-0.2811138 0.0699,-0.1391568 0.0979,-0.3315727 0.0956,-0.5958166 -0.002,-0.2642442 -0.0275,-0.4431303 -0.10748,-0.5958169 -0.08,-0.1526866 -0.192918,-0.2228952 -0.318326,-0.2754238 -0.0895,-0.0375 -0.134668,-0.051498 -0.189648,-0.097698 -0.055,-0.0462 -0.128448,-0.1326871 -0.212906,-0.3317526 -0.0845,-0.1990656 -0.0949,-0.311293 -0.0899,-0.3829214 0.005,-0.071598 0.0257,-0.1126276 0.061,-0.2030756 0.0353,-0.090398 0.0877,-0.2335348 0.0253,-0.4216706 -0.05,-0.1508966 -0.167068,-0.3030833 -0.355526,-0.4883391 C 14.234708,1.4829296 14.09367,1.373882 13.929132,1.322483 c -0.164528,-0.051398 -0.303118,-0.0219 -0.422186,0.031 -0.0898,0.0368 -0.129498,0.058398 -0.201018,0.064598 -0.0715,0.006 -0.184498,-0.003 -0.384984,-0.084198 -0.200488,-0.080998 -0.288778,-0.1525165 -0.335896,-0.2067054 -0.0471,-0.054198 -0.0623,-0.098698 -0.10129,-0.18757571 -0.039,-0.088898 -0.100748,-0.22488501 -0.279566,-0.31470301 -0.141228,-0.0708984 -0.332606,-0.0978978 -0.596854,-0.0955978 z m 0.006,0.53018819 h 5.03e-4 c 0.226558,-0.002 0.331216,0.0259 0.353466,0.038799 0.0114,0.007 0.006,-0.008 0.0331,0.054798 0.0274,0.062398 0.0756,0.1915958 0.187588,0.320383 0.111988,0.128787 0.280786,0.2484944 0.535354,0.3513921 0.254556,0.1029077 0.458864,0.134157 0.628902,0.1193773 0.170028,-0.0148 0.294006,-0.075998 0.357076,-0.1018077 0.0372,-0.0152 0.0504,-0.0221 0.0708,-0.0114 0.0245,0.008 0.111799,0.055598 0.273367,0.2144552 0.161568,0.1588265 0.209468,0.2407046 0.217548,0.2650941 0.008,0.0244 0.0157,0.0114 -0.009,0.074898 -0.0247,0.063498 -0.0837,0.1888858 -0.0956,0.3591421 -0.0119,0.1702562 0.0235,0.3740616 0.130738,0.626826 0.10724,0.2527744 0.228978,0.4199007 0.359666,0.5296684 0.13068,0.1097774 0.263218,0.1550664 0.326076,0.1813858 0.0629,0.0263 0.047,0.024702 0.0589,0.047499 0.0119,0.022799 0.0384,0.1129574 0.0403,0.3395023 0.002,0.226555 -0.0252,0.3232628 -0.0326,0.3379626 -0.0115,0.0229 10e-4,0.023201 -0.061,0.050598 -0.0624,0.0274 -0.193657,0.073498 -0.322456,0.1855158 -0.128788,0.1119976 -0.243976,0.2742341 -0.349326,0.5348381 -0.0188,0.046498 -0.0303,0.076598 -0.0444,0.1178173 -0.150879,-0.1173972 -0.283298,-0.1924255 -0.406696,-0.2309847 -0.218648,-0.068298 -0.396866,-0.020399 -0.556544,0.044998 -0.0609,0.0249 -0.108748,0.045999 -0.160198,0.064598 0.222528,-0.3104231 0.345716,-0.684495 0.345716,-1.0763963 0,-1.0196971 -0.8277,-1.8520388 -1.851548,-1.8520388 -0.943368,0 -1.7183686,0.7035845 -1.8370772,1.6096843 C 9.6432126,4.2789069 9.510024,4.3162054 9.3971357,4.3753744 9.1761882,4.491122 9.0896291,4.6680179 9.0338498,4.801185 c -0.0558,0.1331672 -0.086899,0.2277549 -0.177768,0.3358824 -0.025299,0.0301 -0.0565,0.061898 -0.094599,0.095098 C 8.5708762,4.9932314 8.3388291,4.9327229 8.2762396,4.9029936 c -0.023299,-0.011099 -0.025501,-0.012801 -0.0315,-0.0295 -0.0142,-0.0322 -0.0391,-0.1383866 -0.0408,-0.3457021 -0.00201,-0.226555 0.0277,-0.3325725 0.0393,-0.3555321 0.008,-0.015902 0.0288,-0.019301 0.0527,-0.0331 0.0624,-0.0274 0.193158,-0.073498 0.3219463,-0.1855159 C 8.7466732,3.8416572 8.8668817,3.6707909 8.9697907,3.4162267 9.0726994,3.1616622 9.1034389,2.9573568 9.0886491,2.7873306 9.0738483,2.6173044 9.0132501,2.4933271 8.9873604,2.4302585 8.9664615,2.3792601 8.9681595,2.38176 8.9713615,2.3697602 c 0.008,-0.0245 0.0603,-0.1216273 0.2191075,-0.2831837 C 9.3493072,1.92501 9.4430659,1.8719312 9.4674558,1.8638614 c 0.008,-0.005 0.045,0.005 0.0625,0.0155 0.0635,0.0247 0.189408,0.083698 0.3596659,0.095598 0.1702583,0.0119 0.3740643,-0.0235 0.6268313,-0.1307372 0.252776,-0.1072377 0.419375,-0.2305349 0.529154,-0.3612118 0.109778,-0.1306772 0.155578,-0.2616642 0.181908,-0.3245228 0.0263,-0.062898 0.0218,-0.0489 0.0331,-0.054798 0.0228,-0.0119 0.12691,-0.042499 0.353466,-0.044399 z m -4.3924465,0.43355 c -0.0505,0.050499 -0.078,0.1140875 -0.077,0.1855159 v 0.5301882 c 0.006,0.3475222 0.5162242,0.3552121 0.529164,-10e-4 l 0.00201,-0.5291582 C 7.6760571,1.5331385 7.5642664,1.4304807 7.4390874,1.4154612 c -0.07523,-0.00901 -0.1548586,0.01359 -0.2177879,0.077488 z M 5.9128649,2.2081633 C 5.8059064,2.319221 5.8086762,2.4781074 5.9123357,2.5817752 l 0.3741355,0.3741317 c 0.1246885,0.1246872 0.2809769,0.093398 0.3746557,0 0.093399,-0.093698 0.1241585,-0.2494444 -5.292e-4,-0.3741316 L 6.2864805,2.2076536 c -0.0518,-0.051798 -0.1174387,-0.078798 -0.1839679,-0.079093 -0.0665,-2.25e-4 -0.1341284,0.026105 -0.1896477,0.079603 z M 5.3831913,3.4395661 c -0.0714,-9.789e-4 -0.1349983,0.026001 -0.1855178,0.076498 -0.1703981,0.1678561 -0.047,0.4551697 0.1855178,0.45423 L 5.912345,3.9682843 C 6.2686007,3.9553858 6.2614209,3.4452755 5.914355,3.4391256 Z m 5.5122547,1.3946888 c 0.055,0.0276 0.0766,0.052398 0.122988,0.1581262 0.0464,0.1057076 0.112208,0.2859738 0.269746,0.4671398 0.157548,0.181166 0.398056,0.356022 0.782892,0.5115885 0.384824,0.1555564 0.681172,0.1985556 0.920348,0.1777662 0.239188,-0.020799 0.410436,-0.1045479 0.517274,-0.1483069 0.0737,-0.0302 0.122898,-0.054098 0.201538,-0.0295 0.0786,0.024601 0.241807,0.1211973 0.510554,0.3860114 0.271126,0.2699239 0.356516,0.4143608 0.381886,0.4909192 0.0177,0.066098 0.0166,0.093498 -0.0253,0.2010153 -0.0419,0.1075677 -0.124369,0.280354 -0.141078,0.5198486 -0.0167,0.2395045 0.0317,0.5335782 0.193787,0.9156896 0.162108,0.3821116 0.339646,0.6232961 0.523473,0.7777127 0.183828,0.1544265 0.365826,0.2148152 0.472316,0.2594142 0.106488,0.0446 0.135018,0.069398 0.162268,0.1214374 0.0382,0.072998 0.0847,0.2576942 0.0879,0.6247459 0.003,0.367052 -0.041,0.553208 -0.078,0.626826 -0.037,0.0736 -0.0955,0.0955 -0.158129,0.122988 -0.105709,0.0464 -0.287537,0.112207 -0.468705,0.269744 -0.181168,0.157546 -0.354476,0.39961 -0.510044,0.784432 -0.155558,0.384822 -0.200617,0.679095 -0.179828,0.91827 0.0208,0.239174 0.10662,0.41043 0.150379,0.517268 0.023,0.0596 0.0541,0.122898 0.0295,0.201536 -0.0246,0.0786 -0.123518,0.242064 -0.380844,0.503827 -0.257338,0.261754 -0.405686,0.357962 -0.498155,0.388602 -0.0661,0.0177 -0.0914,0.0166 -0.198957,-0.0253 -0.10757,-0.0419 -0.281908,-0.124366 -0.521404,-0.141076 -0.239508,-0.0167 -0.534094,0.0317 -0.91621,0.193786 -0.382126,0.162116 -0.620712,0.339642 -0.77514,0.523468 -0.154428,0.183836 -0.215318,0.365822 -0.259928,0.47231 -0.0446,0.106486 -0.0721,0.136696 -0.120928,0.162266 -0.073,0.0382 -0.258216,0.0847 -0.625272,0.0879 -0.367056,0.003 -0.5375139,-0.0327 -0.6268326,-0.0775 -0.0542,-0.0272 -0.078599,-0.0524 -0.1250487,-0.158128 -0.0464,-0.105705 -0.1101496,-0.28752 -0.2676878,-0.468687 C 9.1872656,14.98924 8.9446787,14.815924 8.5598531,14.660356 8.1750177,14.50479 7.8792013,14.461791 7.6400239,14.48259 c -0.2391871,0.0208 -0.410955,0.104548 -0.5177937,0.148318 -0.1068389,0.0438 -0.1440283,0.0461 -0.1989478,0.0289 -0.093198,-0.0291 -0.242077,-0.122986 -0.503844,-0.38032 -0.2617668,-0.257326 -0.3586857,-0.406282 -0.3891155,-0.49815 -0.0196,-0.0593 -0.0161,-0.0914 0.0258,-0.198956 0.0419,-0.107567 0.1238486,-0.281904 0.1405584,-0.521398 0.0122,-0.174616 -0.010499,-0.379582 -0.086798,-0.625276 h 1.5042822 c 0.6501422,0.827342 1.6475003,1.31462 2.7052285,1.31462 1.906787,0 3.439539,-1.543084 3.439539,-3.439502 0,-1.896408 -1.535782,-3.4395139 -3.439539,-3.4395139 -1.7271801,0 -3.1601334,1.2772117 -3.4023403,2.9382548 L 6.0044634,8.5280235 6.1005622,8.1662917 c 0.1501082,-0.6168664 -0.0533,-0.9031601 -0.1209285,-1.0975758 -0.013899,-0.039999 -0.0338,-0.084798 0,-0.1700162 0.0338,-0.085198 0.1378185,-0.2428247 0.3710356,-0.4800593 0.2573271,-0.2617542 0.4199452,-0.363212 0.4981541,-0.3891215 0.0782,-0.0259 0.1263586,-0.003 0.2010177,0.025799 C 7.15741,6.0972169 7.3301976,6.179175 7.5697049,6.195875 7.8092122,6.212575 8.1032786,6.162675 8.4853943,6.000549 8.8675097,5.8384421 9.1066367,5.6608961 9.261055,5.4770704 9.4154831,5.2932443 9.4779325,5.1127983 9.522532,5.0063107 c 0.0308,-0.073498 0.0485,-0.1240271 0.1214383,-0.1622564 0.0848,-0.044399 0.257707,-0.084698 0.6247067,-0.087848 0.367001,-0.00295 0.534979,0.03195 0.626769,0.078049 z m 2.334162,5.4760591 c 0,1.610444 -1.307214,2.911904 -2.910386,2.911904 -0.7502803,0 -1.4601418,-0.287313 -1.9952056,-0.793222 0.2959566,-0.0342 0.5564035,-0.188096 0.7265616,-0.41598 0.1327185,0.100308 0.2949665,0.157606 0.4759342,0.157606 h 2.1171638 c 0.435156,0 0.792661,-0.351282 0.792701,-0.793732 V 9.7894249 c 3e-5,-0.4351402 -0.351335,-0.7926423 -0.792701,-0.7927023 L 9.5265121,8.9962199 C 9.0913574,8.9961698 8.7324416,9.3455219 8.7322617,9.7894321 L 8.7317325,10.464827 C 8.5751345,10.374129 8.3955866,10.31859 8.202059,10.31859 H 7.4098683 c -1.01e-5,-0.003 -5.292e-4,-0.005 -5.292e-4,-0.008 0,-1.6104348 1.3097243,-2.9098359 2.9098739,-2.9097139 1.600161,1.219e-4 2.910395,1.299003 2.910395,2.9094379 z M 2.6474337,7.408998 h 0.7560102 c 0.6397727,0 0.9837487,0.1113675 1.2484952,0.3048834 C 4.916696,7.907387 5.1219936,8.2051004 5.42966,8.635251 l 1.4991124,2.101633 c 0.0499,0.0702 0.1309682,0.111448 0.2170372,0.111098 h 1.0562577 c 0.2977265,0 0.5291537,0.238744 0.5291537,0.529158 0,0.290414 -0.2314272,0.529158 -0.5291537,0.529158 H 5.666848 L 4.4230125,10.648517 C 4.1743155,10.397223 3.7970902,10.770334 4.045777,11.021619 l 0.4531946,0.45681 v 1.486696 H 1.0599524 V 8.983023 c 0,-0.9259994 0.6877718,-1.5740252 1.5874813,-1.574025 z m 7.1426256,2.117133 v 1.057797 c 9.8e-6,0.196675 0.2069974,0.324612 0.3829257,0.236674 l 0.411853,-0.205156 0.410306,0.205156 c 0.175928,0.0879 0.382906,-0.04 0.382916,-0.236674 V 9.526132 h 0.265616 c 0.149088,0 0.263548,0.1196274 0.263548,0.263544 v 1.587465 c 0,0.141846 -0.11239,0.264574 -0.263548,0.264574 H 9.5265121 c -0.1459982,0 -0.2656667,-0.113428 -0.2656067,-0.264574 L 9.2614081,9.789676 C 9.2614682,9.6436994 9.3753469,9.526132 9.5265086,9.5261315 Z"
       id="path2665"
       inkscape:connector-curvature="0"
       sodipodi:nodetypes="cccccccccccccccccccccccccccccccccccccccccccccccccccccccccccccccccccccccccccccccccccccccccccccccccccccccccccccccccccccccccccccccccccccccccccccccccccccccccccccccccccccccccccccccccccccccccccccccccccccccccccccccccccccccccccccccccccccccccccccccccccccccccccccccccccccccccccccccccccccccccccccccc" />
  </g>
</svg>
